# xmcd
#
# Track frame offsets:
#  150
#  13775
#  30064
#  52858
#  66744
#  84845
#
# Disc length: 1331 seconds
#
# Revision: 0
# Processed by: cddbd v1.4PL0 Copyright (c) Steve Scherf et al.
# Submitted via: AltoMP3_Maker 3.0
#
DISCID=3c053106
DTITLE=Anna Fermin - Trigger Gospel
DYEAR=1900
DGENRE=
TTITLE0=Blame Me
TTITLE1=Nowhere
TTITLE2=Blue Sky
TTITLE3=Not Your World
TTITLE4=I'll Forget You
TTITLE5=?
EXTD=
EXTT0=
EXTT1=
EXTT2=
EXTT3=
EXTT4=
EXTT5=
PLAYORDER=
